<?xml version="1.0" encoding="UTF-8"?> <svg xmlns="http://www.w3.org/2000/svg" width="1000" height="365" viewBox="0 0 1000 365"><g fill="#0078D7" fill-rule="evenodd"><path d="M273.32 82.016 35.859 125.735v116.408L0 237.278V133.574l35.858-47.19 124.868-48.986L160.26 0zm0 0v193.776l-237.463-32.1 100.325 117.462v-43.595l137.137 43.595 90.033-74.456V65.16z"></path><path fill-rule="nonzero" d="M604.254 179.933h-19.14l-15.641-41.356h-62.566l-14.715 41.356h-19.243l56.597-147.526h17.905zm-40.441-56.891L540.66 60.184c-.755-2.058-1.51-5.35-2.264-9.877h-.412c-.686 4.184-1.475 7.476-2.367 9.877l-22.947 62.858zm133.363-43.62-62.36 86.109h61.743v14.402h-86.542v-5.246l62.36-85.698h-56.495V74.587h81.294zm107.021 100.511H787.32v-16.666h-.411c-6.998 12.757-17.837 19.135-32.518 19.135-25.108 0-37.663-14.951-37.663-44.854V74.587h16.774v60.286c0 22.222 8.506 33.332 25.52 33.332 8.232 0 15.007-3.035 20.323-9.104 5.317-6.07 7.975-14.009 7.975-23.817V74.587h16.877zm89.011-88.269c-2.95-2.263-7.203-3.395-12.76-3.395-7.203 0-13.223 3.395-18.06 10.185-4.836 6.79-7.254 16.05-7.254 27.777v53.702h-16.876V74.587h16.876v21.707h.412c2.4-7.407 6.07-13.186 11.01-17.335 4.94-4.15 10.462-6.224 16.568-6.224 4.39 0 7.752.48 10.084 1.44zm103.007 39.814h-74.4c.275 11.728 3.43 20.781 9.468 27.16 6.037 6.378 14.338 9.567 24.903 9.567 11.868 0 22.776-3.909 32.723-11.728v15.843c-9.261 6.722-21.507 10.082-36.737 10.082-14.886 0-26.583-4.783-35.09-14.351-8.507-9.568-12.76-23.027-12.76-40.38 0-16.391 4.648-29.748 13.944-40.07 9.295-10.323 20.838-15.484 34.627-15.484 13.789 0 24.457 4.458 32.003 13.375 7.546 8.916 11.32 21.295 11.32 37.138zm-17.288-14.3c-.068-9.74-2.418-17.318-7.049-22.736-4.63-5.418-11.062-8.127-19.294-8.127-7.958 0-14.715 2.846-20.272 8.538-5.557 5.693-8.987 13.135-10.29 22.325zm-506.129 211.48V218.013h30.562c39 0 58.5 17.978 58.5 53.934 0 17.078-5.414 30.8-16.245 41.164-10.83 10.365-25.327 15.547-43.49 15.547zm12.965-98.917v87.19h16.517c14.509 0 25.803-3.884 33.88-11.652 8.079-7.767 12.118-18.775 12.118-33.023 0-28.343-15.076-42.515-45.227-42.515zm159.682 62.576h-55.8c.206 8.796 2.573 15.586 7.1 20.37 4.528 4.783 10.754 7.175 18.677 7.175 8.902 0 17.082-2.932 24.543-8.796v11.883c-6.946 5.04-16.13 7.561-27.553 7.561-11.165 0-19.937-3.588-26.317-10.763-6.38-7.176-9.57-17.271-9.57-30.285 0-12.294 3.486-22.312 10.457-30.053 6.972-7.742 15.629-11.613 25.97-11.613 10.343 0 18.343 3.344 24.003 10.031 5.66 6.687 8.49 15.972 8.49 27.854zm-12.966-10.725c-.052-7.305-1.814-12.989-5.287-17.052-3.473-4.064-8.297-6.096-14.47-6.096-5.97 0-11.037 2.135-15.205 6.404-4.168 4.27-6.74 9.851-7.718 16.744zm94.234-31.944-31.489 79.01H682.8l-29.945-79.01h13.892l20.066 57.406c1.492 4.218 2.418 7.896 2.778 11.034h.31c.514-3.961 1.337-7.536 2.469-10.725l20.992-57.715zm59.89 80.862c-15.693 0-28.26-5.17-37.701-15.509-9.442-10.339-14.163-23.79-14.163-40.353 0-17.798 4.811-31.995 14.433-42.592 9.621-10.596 22.716-15.894 39.283-15.894 15.282 0 27.591 5.143 36.93 15.431 9.338 10.288 14.008 23.74 14.008 40.354 0 18.055-4.785 32.33-14.355 42.823-9.57 10.493-22.382 15.74-38.435 15.74m.926-102.62c-11.628 0-21.07 4.192-28.324 12.576-7.255 8.385-10.882 19.393-10.882 33.024s3.537 24.6 10.612 32.908c7.074 8.308 16.297 12.461 27.668 12.461 12.143 0 21.713-3.96 28.71-11.882 6.998-7.922 10.496-19.007 10.496-33.255 0-14.609-3.395-25.9-10.187-33.873-6.792-7.973-16.156-11.96-28.093-11.96Zm84.896 89.349h-.309V365H859.46V249.648h12.657v13.889h.309c6.226-10.494 15.333-15.74 27.32-15.74 10.188 0 18.138 3.536 23.849 10.609 5.711 7.073 8.567 16.55 8.567 28.433 0 13.22-3.216 23.803-9.648 31.75-6.431 7.948-15.23 11.921-26.394 11.921-10.24 0-18.137-4.424-23.694-13.271Zm-.309-31.866v11.033c0 6.533 2.123 12.075 6.367 16.628 4.245 4.552 9.635 6.828 16.17 6.828 7.665 0 13.672-2.932 18.02-8.796 4.348-5.864 6.522-14.017 6.522-24.459 0-8.796-2.033-15.689-6.097-20.678-4.065-4.99-9.57-7.485-16.516-7.485-7.358 0-13.275 2.56-17.751 7.678-4.477 5.118-6.715 11.535-6.715 19.25Zm75.48 40.431v-13.58c6.895 5.092 14.484 7.638 22.768 7.638 11.113 0 16.67-3.703 16.67-11.11 0-2.11-.476-3.897-1.428-5.363-.952-1.466-2.238-2.765-3.859-3.896-1.62-1.132-3.524-2.148-5.71-3.048a368.56 368.56 0 0 0-7.063-2.816c-3.498-1.39-6.573-2.791-9.222-4.206-2.65-1.414-4.863-3.009-6.638-4.783-1.775-1.775-3.112-3.794-4.013-6.057-.9-2.264-1.35-4.913-1.35-7.948 0-3.703.848-6.983 2.546-9.837 1.698-2.855 3.962-5.247 6.792-7.176 2.83-1.93 6.059-3.382 9.686-4.36a42.974 42.974 0 0 1 11.23-1.466c6.842 0 12.965 1.184 18.368 3.55v12.808c-5.814-3.806-12.503-5.71-20.067-5.71-2.366 0-4.502.27-6.405.81-1.904.54-3.538 1.3-4.901 2.277-1.364.977-2.418 2.147-3.164 3.51-.747 1.363-1.12 2.868-1.12 4.514 0 2.058.373 3.78 1.12 5.17.746 1.389 1.839 2.623 3.28 3.703 1.44 1.08 3.19 2.058 5.248 2.932 2.058.875 4.399 1.826 7.023 2.855 3.499 1.338 6.637 2.714 9.416 4.128 2.778 1.415 5.145 3.01 7.1 4.784 1.955 1.775 3.46 3.82 4.515 6.134 1.055 2.315 1.582 5.067 1.582 8.256 0 3.91-.862 7.304-2.585 10.185-1.724 2.88-4.027 5.272-6.908 7.176-2.881 1.903-6.2 3.317-9.956 4.243-3.756.926-7.692 1.39-11.808 1.39-8.13 0-15.178-1.57-21.147-4.707"></path></g></svg> 